<?xml version="1.0" encoding="UTF-8" standalone="no"?>
<!-- Created with Inkscape (http://www.inkscape.org/) -->

<svg
   xmlns:dc="http://purl.org/dc/elements/1.1/"
   xmlns:cc="http://creativecommons.org/ns#"
   xmlns:rdf="http://www.w3.org/1999/02/22-rdf-syntax-ns#"
   xmlns:svg="http://www.w3.org/2000/svg"
   xmlns="http://www.w3.org/2000/svg"
   xmlns:sodipodi="http://sodipodi.sourceforge.net/DTD/sodipodi-0.dtd"
   xmlns:inkscape="http://www.inkscape.org/namespaces/inkscape"
   width="11.493063mm"
   height="11.209466mm"
   viewBox="0 0 11.493063 11.209466"
   version="1.1"
   id="svg870"
   inkscape:version="0.92.3 (2405546, 2018-03-11)"
   sodipodi:docname="github-mark-small-black.svg">
  <defs
     id="defs864" />
  <sodipodi:namedview
     id="base"
     pagecolor="#ffffff"
     bordercolor="#666666"
     borderopacity="1.0"
     inkscape:pageopacity="0.0"
     inkscape:pageshadow="2"
     inkscape:zoom="0.7"
     inkscape:cx="-129.2716"
     inkscape:cy="-146.81164"
     inkscape:document-units="mm"
     inkscape:current-layer="layer1"
     showgrid="false"
     fit-margin-top="0"
     fit-margin-left="0"
     fit-margin-right="0"
     fit-margin-bottom="0"
     inkscape:window-width="1280"
     inkscape:window-height="996"
     inkscape:window-x="1366"
     inkscape:window-y="0"
     inkscape:window-maximized="1" />
  <metadata
     id="metadata867">
    <rdf:RDF>
      <cc:Work
         rdf:about="">
        <dc:format>image/svg+xml</dc:format>
        <dc:type
           rdf:resource="http://purl.org/dc/dcmitype/StillImage" />
        <dc:title></dc:title>
      </cc:Work>
    </rdf:RDF>
  </metadata>
  <g
     inkscape:label="Layer 1"
     inkscape:groupmode="layer"
     id="layer1"
     transform="translate(-10.884379,-141.7167)">
    <path
       inkscape:connector-curvature="0"
       id="path24"
       style="fill:#1b1817;fill-opacity:1;fill-rule:evenodd;stroke:none;stroke-width:0.35277775"
       d="m 16.630423,141.7167 c -3.173236,0 -5.746044,2.5728 -5.746044,5.74675 0,2.53894 1.646414,4.69265 3.929944,5.45288 0.287514,0.0526 0.392289,-0.12488 0.392289,-0.27728 0,-0.13617 -0.0049,-0.49777 -0.0078,-0.9772 -1.598436,0.34714 -1.935692,-0.77046 -1.935692,-0.77046 -0.261408,-0.66358 -0.638175,-0.84032 -0.638175,-0.84032 -0.521758,-0.35666 0.03951,-0.3496 0.03951,-0.3496 0.576791,0.0409 0.88018,0.59231 0.88018,0.59231 0.512586,0.87807 1.345142,0.62442 1.67252,0.47766 0.05221,-0.37147 0.200377,-0.62477 0.364772,-0.76835 -1.275997,-0.14499 -2.617611,-0.63817 -2.617611,-2.84021 0,-0.62724 0.224014,-1.14018 0.591608,-1.54199 -0.05927,-0.14535 -0.256469,-0.72955 0.05609,-1.52083 0,0 0.4826,-0.15451 1.580444,0.58914 0.458258,-0.12735 0.950031,-0.1912 1.438628,-0.19332 0.487891,0.002 0.979664,0.066 1.438628,0.19332 1.097138,-0.74365 1.57868,-0.58914 1.57868,-0.58914 0.313619,0.79128 0.116417,1.37548 0.05715,1.52083 0.3683,0.40181 0.590903,0.91475 0.590903,1.54199 0,2.20768 -1.343731,2.69346 -2.623961,2.83563 0.206375,0.17744 0.390172,0.5281 0.390172,1.06433 0,0.76799 -0.0071,1.38782 -0.0071,1.57621 0,0.15381 0.103364,0.33267 0.395111,0.27658 2.28177,-0.76165 3.926773,-2.91395 3.926773,-5.45218 0,-3.17395 -2.573161,-5.74675 -5.747103,-5.74675" />
  </g>
</svg>
